<?xml version="1.0" encoding="utf-8"?>
<!-- Generator: Adobe Illustrator 27.9.2, SVG Export Plug-In . SVG Version: 6.00 Build 0)  -->
<svg version="1.1" id="Layer_1" xmlns="http://www.w3.org/2000/svg" xmlns:xlink="http://www.w3.org/1999/xlink" x="0px" y="0px"
	 viewBox="0 0 1314 1449" style="enable-background:new 0 0 1314 1449;" xml:space="preserve">
<style type="text/css">
	.st0{display:none;}
	.st1{fill:none;stroke:#231F20;stroke-width:1.000000e-04;stroke-linecap:round;stroke-miterlimit:288;}
	.st2{fill:none;stroke:#000000;stroke-width:1.000000e-04;stroke-linecap:round;stroke-miterlimit:288;}
	.st3{fill:none;stroke:#000000;stroke-miterlimit:288;}
	.st4{fill:none;stroke:#000000;stroke-miterlimit:10;}
</style>
<g id="Layer_2_00000146486429169616179250000010371813284196903588_" class="st0">
	
		<image style="display:inline;overflow:visible;enable-background:new    ;" width="676" height="805" xlink:href="260476A9.jpg"  transform="matrix(0.9864 0 0 0.9343 -116.8726 727.3248)">
	</image>
</g>
<g id="Layer_1_00000081611016393276004940000007676569329072352921_">
	<circle class="st1" cx="1098" cy="1233" r="72"/>
	<g id="svgGroup">
		<path id="front_outsideCutPath" vector-effect="non-scaling-stroke" class="st2" d="M0,729v53.1h8.5v36.1H0v36.1h8.5v36.1H0v36.1
			h8.5v36.1H0v36.1h8.5v36.1H0v36.1h8.5v36.1H0v36.1h8.5v36.1H0v36.1h8.5v36.1H0v36.1h8.5v36.1H0v36.1h8.5v36.1H0v36.1v17h53.5v-8.5
			h36.1v8.5h36.1v-8.5h36.1v8.5h36.1v-8.5H234v8.5h36.1v-8.5h36.1v8.5h36.1v-8.5h36.1v8.5h36.1H432v-53.1h-8.5v-36.1h8.5v-36.1h-8.5
			v-36.1h8.5v-36.1h-8.5v-36.1h8.5v-36.1h-8.5v-36.1h8.5V1107h-8.5v-36.1h8.5v-36.1h-8.5v-36.1h8.5v-36.1h-8.5v-36.1h8.5v-36.1h-8.5
			v-36.1h8.5v-36.1h-8.5v-36.1h8.5V746v-17H0z"/>
		<path id="left_outsideCutPath" vector-effect="non-scaling-stroke" class="st2" d="M449.5,729v53.1H441v36.1h8.5v36.1H441v36.1
			h8.5v36.1H441v36.1h8.5v36.1H441v36.1h8.5v36.1H441v36.1h8.5v36.1H441v36.1h8.5v36.1H441v36.1h8.5v36.1H441v36.1h8.5v36.1H441
			v36.1h8.5v36.1v17h45v-8.5h36.1v8.5h36.1v-8.5h36.1v8.5h36.1v-8.5H675v8.5h36.1v-8.5h36.1v8.5h36.1v-8.5h36.1v8.5h36.1h8.9v-53.1
			h8.5v-36.1h-8.5v-36.1h8.5v-36.1h-8.5v-36.1h8.5v-36.1h-8.5v-36.1h8.5v-36.1h-8.5V1107h8.5v-36.1h-8.5v-36.1h8.5v-36.1h-8.5v-36.1
			h8.5v-36.1h-8.5v-36.1h8.5v-36.1h-8.5v-36.1h8.5v-36.1h-8.5V746v-17H449.5z"/>
		<path id="back_outsideCutPath" vector-effect="non-scaling-stroke" class="st2" d="M0,0v53.1h8.5v36.1H0v36.1h8.5v36.1H0v36.1h8.5
			v36.1H0v36.1h8.5v36.1H0v36.1h8.5V378H0v36.1h8.5v36.1H0v36.1h8.5v36.1H0v36.1h8.5v36.1H0v36.1h8.5v36.1H0V703v17h53.5v-8.5h36.1
			v8.5h36.1v-8.5h36.1v8.5h36.1v-8.5H234v8.5h36.1v-8.5h36.1v8.5h36.1v-8.5h36.1v8.5h36.1H432v-53.1h-8.5v-36.1h8.5v-36.1h-8.5
			v-36.1h8.5v-36.1h-8.5v-36.1h8.5v-36.1h-8.5v-36.1h8.5v-36.1h-8.5V342h8.5v-36.1h-8.5v-36.1h8.5v-36.1h-8.5v-36.1h8.5v-36.1h-8.5
			v-36.1h8.5V89.2h-8.5V53.1h8.5V17V0H0z"/>
		<path id="right_outsideCutPath" vector-effect="non-scaling-stroke" class="st2" d="M449.5,0v53.1H441v36.1h8.5v36.1H441v36.1h8.5
			v36.1H441v36.1h8.5v36.1H441v36.1h8.5v36.1H441V378h8.5v36.1H441v36.1h8.5v36.1H441v36.1h8.5v36.1H441v36.1h8.5v36.1H441v36.1h8.5
			V703v17h45v-8.5h36.1v8.5h36.1v-8.5h36.1v8.5h36.1v-8.5H675v8.5h36.1v-8.5h36.1v8.5h36.1v-8.5h36.1v8.5h36.1h8.9v-53.1h8.5v-36.1
			h-8.5v-36.1h8.5v-36.1h-8.5v-36.1h8.5v-36.1h-8.5v-36.1h8.5v-36.1h-8.5v-36.1h8.5V342h-8.5v-36.1h8.5v-36.1h-8.5v-36.1h8.5v-36.1
			h-8.5v-36.1h8.5v-36.1h-8.5V89.2h8.5V53.1h-8.5V17V0H449.5z"/>
		<path id="bottom_outsideCutPath" vector-effect="non-scaling-stroke" class="st2" d="M890.5,1025.5v45H882v36.1h8.5v36.1H882v36.1
			h8.5v36.1H882v36.1h8.5v36.1H882v36.1h8.5v36.1H882v36.1h8.5v36.1v8.9h45v8.5h36.1v-8.5h36.1v8.5h36.1v-8.5h36.1v8.5h36.1v-8.5
			h36.1v8.5h36.1v-8.5h36.1v8.5h36.1v-8.5h36.1h8.9v-45h8.5v-36.1h-8.5v-36.1h8.5v-36.1h-8.5V1251h8.5v-36.1h-8.5v-36.1h8.5v-36.1
			h-8.5v-36.1h8.5v-36.1h-8.5v-36.1v-8.9h-45v-8.5h-36.1v8.5h-36.1v-8.5h-36.1v8.5H1116v-8.5h-36.1v8.5h-36.1v-8.5h-36.1v8.5h-36.1
			v-8.5h-36.1v8.5h-36.1L890.5,1025.5L890.5,1025.5z"/>
		<path class="st3" d="M123.4,1185.7"/>
		<path class="st3" d="M208.8,1209.2c0,0,0.1,18.6-0.2,23.1c-0.4,4.5,0.2,10,4.5,10.2s4.3-8.2,4.3-8.2l0.1-23.4l8.9,3.3
			c0,0-0.1,6.6,0.1,14.2c0.2,7.6,1.9,8.4,1.9,8.4l5,3.3c-10.6,2.1-21.7,14.1-21.7,14.1c-8.9-7.6-23.4-12.3-23.4-12.3
			s6.2-2.8,9.5-5.5c3.3-2.6,2.6-4.9,2.6-4.9l-1.2-24.8L208.8,1209.2z"/>
		<path class="st3" d="M297.6,1226.2c1.7,0.6,2.6,1.5,4.2,2c25.7,9.4,7.4,18,4.9,18.5c-2.5,0.4-19.8,0-19.8,0s0.6-4.7,3.1-4.4
			c2.6,0.4,20.4,2.5,11.4-4.4s-157.8-56.3-157.8-56.3s-13.8-5.5-27.6-1.5c0,0-1.2,12.8-13,5.6c-11.9-7.2,2.6-17.9,12.2-13.6
			c0,0,3.9-0.8,12.2-0.3L93.3,1079h8.3l32.8,93.5c0.3,0,0.6,0.1,0.9,0.1l35.4-90.9h6.2l-37.5,91l0,0c7.3,1,13.2,2.8,24.6,6.1
			l19.3,6.2c0,0,1.4-8.9,11.1-10l16,0.4c-1.9,1.3-11.7,8.8-12.3,11.3c-1.7,7.1,13,10.2,13,10.2h0.9c0,0,16,1.3,16.7-7.2
			c0.4-4.3-7.5-11.9-10.2-13.5h17.2c1.7,1.1,4.4,3.9,4.9,6.8c0,0,0,1.8,8.2,2.8c0,0-18.3,7.1-13.9,14.6c0,0,30.6,14.1,56.3,23.8
			l-2.1-4.5l-38.8-89.2h7.2l33.2,86.8c0,0,2.4,4.9,5.2,0c2.8-4.9,33.6-86.8,33.6-86.8h6.4L297.6,1226.2z"/>
		<path class="st3" d="M250.1,1122.5h86.6c0,0-8.5-16.3-43.3-16.3s-43.3,15.4-43.3,15.4L250.1,1122.5L250.1,1122.5z"/>
		<path class="st3" d="M93.1,1071.4h86.6c0,0-8.5-16.3-43.3-16.3s-43.3,15.4-43.3,15.4L93.1,1071.4z"/>
		<rect x="30.6" y="785.7" class="st3" width="12.5" height="600.2"/>
		<rect x="383.3" y="785.7" class="st3" width="12.5" height="600.2"/>
		<rect x="61.4" y="1379.9" class="st3" width="309.7" height="6"/>
		<rect x="62.9" y="1318.5" class="st3" width="300.7" height="6"/>
		<rect x="59.9" y="851.1" class="st3" width="300.7" height="6"/>
		<rect x="54.7" y="785.7" class="st3" width="309.7" height="6"/>
		<rect x="351" y="865" class="st3" width="9.7" height="445.8"/>
		<rect x="62.8" y="864.4" class="st3" width="9.7" height="445.8"/>
		<path class="st3" d="M213.8,839.8V833c0,0-18.8-0.5-18.8-13.1s18.8-9.2,18.8-9.2v-9.8c0,0-31.3,3-30.4,19.4
			C184.2,836.8,205.9,839,213.8,839.8z"/>
		<path class="st3" d="M220.6,839.8V833c0,0,17.7-6,17.4-12.6s-17.4-9.9-17.4-9.9v-7.9c0,0,27.7,5.4,28,16
			C248.9,829.2,227.7,838.4,220.6,839.8z"/>
		<path class="st4" d="M302.2,821.2c0,0-3.5,15.4,36.2,16.7c39.7,1.4,32.1-17.5,32.1-17.5l-9.8-1c0,0,0.2,12-24.1,11.7
			c-24.3-0.3-24.6-9.9-24.6-9.9H302.2z"/>
		<path class="st4" d="M302.1,816.4h10.7c0,0-3-13.1,23.8-11.7c26.8,1.4,24.1,10.6,24.1,10.6l8.2-0.5c0,0-4.7-16.3-32.2-15
			C309,801.2,303.4,809.1,302.1,816.4z"/>
		<path class="st4" d="M56.4,822.7c0,0-3.5,15.4,36.2,16.7s32.1-17.5,32.1-17.5l-9.8-1c0,0,0.2,12-24.1,11.7s-24.6-9.9-24.6-9.9
			H56.4z"/>
		<path class="st4" d="M56.3,817.9H67c0,0-3-13.1,23.8-11.7c26.8,1.4,24.1,10.6,24.1,10.6l8.2-0.5c0,0-4.7-16.3-32.2-15
			C63.2,802.7,57.6,810.6,56.3,817.9z"/>
		<rect x="146.7" y="803.9" class="st4" width="9.2" height="35.9"/>
		<rect x="277.9" y="803.9" class="st4" width="9.2" height="35.9"/>
		<ellipse class="st4" cx="86.3" cy="819.8" rx="9.8" ry="6.1"/>
		<ellipse class="st4" cx="213.8" cy="821.9" rx="9.8" ry="6.1"/>
		<ellipse class="st4" cx="332.8" cy="817.9" rx="9.8" ry="6.1"/>
		<path class="st3" d="M212.3,1371.1v-6.8c0,0-18.8-0.5-18.8-13.1c0-12.5,18.8-9.2,18.8-9.2v-9.8c0,0-31.3,3-30.4,19.4
			C182.6,1368.2,204.4,1370.3,212.3,1371.1z"/>
		<path class="st3" d="M219.1,1371.1v-6.8c0,0,17.7-6,17.4-12.6s-17.4-9.9-17.4-9.9v-7.9c0,0,27.7,5.4,28,16
			C247.4,1360.5,226.1,1369.8,219.1,1371.1z"/>
		<path class="st4" d="M300.6,1352.5c0,0-3.5,15.4,36.2,16.7c39.7,1.4,32.1-17.5,32.1-17.5l-9.8-1c0,0,0.2,12-24.1,11.7
			c-24.3-0.3-24.6-9.9-24.6-9.9L300.6,1352.5L300.6,1352.5z"/>
		<path class="st4" d="M300.6,1347.8h10.7c0,0-3-13.1,23.8-11.7s24.1,10.6,24.1,10.6l8.2-0.5c0,0-4.7-16.3-32.2-15
			C307.4,1332.5,301.8,1340.4,300.6,1347.8z"/>
		<path class="st4" d="M54.8,1354c0,0-3.5,15.4,36.2,16.7c39.7,1.3,32.1-17.5,32.1-17.5l-9.8-1c0,0,0.2,12-24.1,11.7
			s-24.6-9.9-24.6-9.9L54.8,1354L54.8,1354z"/>
		<path class="st4" d="M54.8,1349.3h10.7c0,0-3-13.1,23.8-11.7s24.1,10.6,24.1,10.6l8.2-0.5c0,0-4.7-16.3-32.2-15
			S56,1341.9,54.8,1349.3z"/>
		<rect x="145.1" y="1335.3" class="st4" width="9.2" height="35.9"/>
		<rect x="276.4" y="1335.3" class="st4" width="9.2" height="35.9"/>
		<ellipse class="st4" cx="84.7" cy="1351.2" rx="9.8" ry="6.1"/>
		<ellipse class="st4" cx="212.3" cy="1353.2" rx="9.8" ry="6.1"/>
		<ellipse class="st4" cx="331.3" cy="1349.3" rx="9.8" ry="6.1"/>
		<g>
			<path class="st3" d="M215.4,1165.6c-2.5-0.6-3.8-1.8-3.8-1.8v-7.4l3.8-210c-3.1-6.2-14.6-8.3-14.6-8.3
				c-20.4-6.3-44.5-21.9-57.4-22.1c-12.9-0.2-6.3,5.7-6.3,5.7c14.2,5.3,59.4,25.6,59.4,25.6s0.7,5,0.7,18.9s-0.6,172.7,0.1,185.3
				c0.7,12.7-5.6,12.7-12.9,13.5c-7.4,0.8-3.7,7.5-3.7,7.5c6.3-0.6,11.7-1.9,11.7-1.9h23L215.4,1165.6L215.4,1165.6z"/>
			<path class="st3" d="M290.7,916c-5.8-1.2-122.6,0-122.6,0v2l95.2,4.9c-15.9,7.6-41.1,15.8-41.1,15.8l-0.7,7.7
				c0,0-0.7,200.8-1.1,208.8c-0.4,8.1,6,9,6,9s2.8,0.4-3.4,1.5c-0.2,0-0.4,0.1-0.6,0.1v4.8h14.2c0,0,7.7,2.1,8.7,1.9
				c1.5-0.2,3.7-7.7-3.7-8.3c-6.3-0.5-11-4.7-12.3-5.9c0.1-1.7-0.1-7.6-1.5-25.4c-2.6-33.3,1.2-186.3,1.2-186.3s56.2-23,58.3-24.2
				C289.5,921.2,296.4,917.2,290.7,916z"/>
		</g>
		<path class="st3" d="M565.1,1185.7"/>
		<path class="st3" d="M650.5,1209.2c0,0,0.1,18.6-0.2,23.1c-0.4,4.5,0.2,10,4.5,10.2s4.3-8.2,4.3-8.2l0.1-23.4l8.9,3.3
			c0,0-0.1,6.6,0.1,14.2s1.9,8.4,1.9,8.4l5,3.3c-10.6,2.1-21.7,14.1-21.7,14.1c-8.9-7.6-23.4-12.3-23.4-12.3s6.2-2.8,9.5-5.5
			c3.3-2.6,2.6-4.9,2.6-4.9l-1.2-24.8L650.5,1209.2z"/>
		<path class="st3" d="M739.3,1226.2c1.7,0.6,2.6,1.5,4.2,2c25.7,9.4,7.4,18,4.9,18.5c-2.5,0.4-19.8,0-19.8,0s0.6-4.7,3.1-4.4
			c2.6,0.4,20.4,2.5,11.4-4.4s-157.8-56.3-157.8-56.3s-13.8-5.5-27.6-1.5c0,0-1.2,12.8-13,5.6c-11.9-7.2,2.6-17.9,12.2-13.6
			c0,0,3.9-0.8,12.2-0.3L535,1079h8.3l32.8,93.5c0.3,0,0.6,0.1,0.9,0.1l35.4-90.9h6.2l-37.5,91l0,0c7.3,1,13.2,2.8,24.6,6.1
			l19.3,6.2c0,0,1.4-8.9,11.1-10l16,0.4c-1.9,1.3-11.7,8.8-12.3,11.3c-1.7,7.1,13,10.2,13,10.2h0.9c0,0,16,1.3,16.7-7.2
			c0.4-4.3-7.5-11.9-10.2-13.5h17.2c1.7,1.1,4.4,3.9,4.9,6.8c0,0,0,1.8,8.2,2.8c0,0-18.3,7.1-13.9,14.6c0,0,30.6,14.1,56.3,23.8
			l-2.1-4.5l-38.8-89.2h7.2l33.2,86.8c0,0,2.4,4.9,5.2,0s33.6-86.8,33.6-86.8h6.4L739.3,1226.2z"/>
		<path class="st3" d="M691.8,1122.5h86.6c0,0-8.5-16.3-43.3-16.3s-43.3,15.4-43.3,15.4V1122.5L691.8,1122.5z"/>
		<path class="st3" d="M534.8,1071.4h86.6c0,0-8.5-16.3-43.3-16.3s-43.3,15.4-43.3,15.4V1071.4z"/>
		<rect x="472.3" y="785.7" class="st3" width="12.5" height="600.2"/>
		<rect x="825" y="785.7" class="st3" width="12.5" height="600.2"/>
		<rect x="503.1" y="1379.9" class="st3" width="309.7" height="6"/>
		<rect x="504.6" y="1318.5" class="st3" width="300.7" height="6"/>
		<rect x="501.6" y="851.1" class="st3" width="300.7" height="6"/>
		<rect x="496.4" y="785.7" class="st3" width="309.7" height="6"/>
		<rect x="792.7" y="865" class="st3" width="9.7" height="445.8"/>
		<rect x="504.5" y="864.4" class="st3" width="9.7" height="445.8"/>
		<path class="st3" d="M655.5,839.8V833c0,0-18.8-0.5-18.8-13.1s18.8-9.2,18.8-9.2v-9.8c0,0-31.3,3-30.4,19.4
			C625.9,836.8,647.6,839,655.5,839.8z"/>
		<path class="st3" d="M662.3,839.8V833c0,0,17.7-6,17.4-12.6s-17.4-9.9-17.4-9.9v-7.9c0,0,27.7,5.4,28,16
			C690.6,829.2,669.4,838.4,662.3,839.8z"/>
		<path class="st4" d="M743.9,821.2c0,0-3.5,15.4,36.2,16.7c39.7,1.4,32.1-17.5,32.1-17.5l-9.8-1c0,0,0.2,12-24.1,11.7
			s-24.6-9.9-24.6-9.9H743.9z"/>
		<path class="st4" d="M743.8,816.4h10.7c0,0-3-13.1,23.8-11.7c26.8,1.4,24.1,10.6,24.1,10.6l8.2-0.5c0,0-4.7-16.3-32.2-15
			C750.7,801.2,745.1,809.1,743.8,816.4z"/>
		<path class="st4" d="M498.1,822.7c0,0-3.5,15.4,36.2,16.7s32.1-17.5,32.1-17.5l-9.8-1c0,0,0.2,12-24.1,11.7s-24.6-9.9-24.6-9.9
			H498.1z"/>
		<path class="st4" d="M498,817.9h10.7c0,0-3-13.1,23.8-11.7c26.8,1.4,24.1,10.6,24.1,10.6l8.2-0.5c0,0-4.7-16.3-32.2-15
			C504.9,802.7,499.3,810.6,498,817.9z"/>
		<rect x="588.4" y="803.9" class="st4" width="9.2" height="35.9"/>
		<rect x="719.6" y="803.9" class="st4" width="9.2" height="35.9"/>
		<ellipse class="st4" cx="528" cy="819.8" rx="9.8" ry="6.1"/>
		<ellipse class="st4" cx="655.5" cy="821.9" rx="9.8" ry="6.1"/>
		<ellipse class="st4" cx="774.5" cy="817.9" rx="9.8" ry="6.1"/>
		<path class="st3" d="M654,1371.1v-6.8c0,0-18.8-0.5-18.8-13.1c0-12.5,18.8-9.2,18.8-9.2v-9.8c0,0-31.3,3-30.4,19.4
			C624.3,1368.2,646.1,1370.3,654,1371.1z"/>
		<path class="st3" d="M660.8,1371.1v-6.8c0,0,17.7-6,17.4-12.6s-17.4-9.9-17.4-9.9v-7.9c0,0,27.7,5.4,28,16
			C689.1,1360.5,667.8,1369.8,660.8,1371.1z"/>
		<path class="st4" d="M742.3,1352.5c0,0-3.5,15.4,36.2,16.7c39.7,1.4,32.1-17.5,32.1-17.5l-9.8-1c0,0,0.2,12-24.1,11.7
			s-24.6-9.9-24.6-9.9L742.3,1352.5L742.3,1352.5z"/>
		<path class="st4" d="M742.3,1347.8H753c0,0-3-13.1,23.8-11.7s24.1,10.6,24.1,10.6l8.2-0.5c0,0-4.7-16.3-32.2-15
			C749.1,1332.5,743.5,1340.4,742.3,1347.8z"/>
		<path class="st4" d="M496.5,1354c0,0-3.5,15.4,36.2,16.7c39.7,1.3,32.1-17.5,32.1-17.5l-9.8-1c0,0,0.2,12-24.1,11.7
			s-24.6-9.9-24.6-9.9L496.5,1354L496.5,1354z"/>
		<path class="st4" d="M496.5,1349.3h10.7c0,0-3-13.1,23.8-11.7s24.1,10.6,24.1,10.6l8.2-0.5c0,0-4.7-16.3-32.2-15
			C503.6,1334,497.7,1341.9,496.5,1349.3z"/>
		<rect x="586.8" y="1335.3" class="st4" width="9.2" height="35.9"/>
		<rect x="718.1" y="1335.3" class="st4" width="9.2" height="35.9"/>
		<ellipse class="st4" cx="526.4" cy="1351.2" rx="9.8" ry="6.1"/>
		<ellipse class="st4" cx="654" cy="1353.2" rx="9.8" ry="6.1"/>
		<ellipse class="st4" cx="773" cy="1349.3" rx="9.8" ry="6.1"/>
		<g>
			<path class="st3" d="M657,1165.6c-2.5-0.6-3.8-1.8-3.8-1.8v-7.4l3.8-210c-3.1-6.2-14.6-8.3-14.6-8.3
				c-20.4-6.3-44.5-21.9-57.4-22.1c-12.9-0.2-6.3,5.7-6.3,5.7c14.2,5.3,59.4,25.6,59.4,25.6s0.7,5,0.7,18.9s-0.6,172.7,0.1,185.3
				c0.7,12.7-5.6,12.7-12.9,13.5c-7.4,0.8-3.7,7.5-3.7,7.5c6.3-0.6,11.7-1.9,11.7-1.9h23V1165.6z"/>
			<path class="st3" d="M732.4,916c-5.8-1.2-122.6,0-122.6,0v2l95.2,4.9c-15.9,7.6-41.1,15.8-41.1,15.8l-0.7,7.7
				c0,0-0.7,200.8-1.1,208.8c-0.4,8.1,6,9,6,9s2.8,0.4-3.4,1.5c-0.2,0-0.4,0.1-0.6,0.1v4.8h14.2c0,0,7.7,2.1,8.7,1.9
				c1.5-0.2,3.7-7.7-3.7-8.3c-6.3-0.5-11-4.7-12.3-5.9c0.1-1.7-0.1-7.6-1.5-25.4c-2.6-33.3,1.2-186.3,1.2-186.3s56.2-23,58.3-24.2
				C731.2,921.2,738.1,917.2,732.4,916z"/>
		</g>
	</g>
	<path class="st3" d="M123.4,448.7"/>
	<path class="st3" d="M208.8,472.2c0,0,0.1,18.6-0.2,23.1c-0.4,4.5,0.2,10,4.5,10.2s4.3-8.2,4.3-8.2l0.1-23.4l8.9,3.3
		c0,0-0.1,6.6,0.1,14.2c0.2,7.6,1.9,8.4,1.9,8.4l5,3.3c-10.6,2.1-21.7,14.1-21.7,14.1c-8.9-7.6-23.4-12.3-23.4-12.3s6.2-2.8,9.5-5.5
		c3.3-2.6,2.6-4.9,2.6-4.9l-1.2-24.8L208.8,472.2z"/>
	<path class="st3" d="M297.6,489.2c1.7,0.6,2.6,1.5,4.2,2c25.7,9.4,7.4,18,4.9,18.5c-2.5,0.4-19.8,0-19.8,0s0.6-4.7,3.1-4.4
		c2.6,0.4,20.4,2.5,11.4-4.4s-157.8-56.3-157.8-56.3s-13.8-5.5-27.6-1.5c0,0-1.2,12.8-13,5.6c-11.9-7.2,2.6-17.9,12.2-13.6
		c0,0,3.9-0.8,12.2-0.3L93.3,342h8.3l32.8,93.5c0.3,0,0.6,0.1,0.9,0.1l35.4-90.9h6.2l-37.5,91l0,0c7.3,1,13.2,2.8,24.6,6.1l19.3,6.2
		c0,0,1.4-8.9,11.1-10l16,0.4c-1.9,1.3-11.7,8.8-12.3,11.3c-1.7,7.1,13,10.2,13,10.2h0.9c0,0,16,1.3,16.7-7.2
		c0.4-4.3-7.5-11.9-10.2-13.5h17.2c1.7,1.1,4.4,3.9,4.9,6.8c0,0,0,1.8,8.2,2.8c0,0-18.3,7.1-13.9,14.6c0,0,30.6,14.1,56.3,23.8
		l-2.1-4.5l-38.8-89.2h7.2l33.2,86.8c0,0,2.4,4.9,5.2,0c2.8-4.9,33.6-86.8,33.6-86.8h6.4L297.6,489.2z"/>
	<path class="st3" d="M250.1,385.5h86.6c0,0-8.5-16.3-43.3-16.3s-43.3,15.4-43.3,15.4L250.1,385.5L250.1,385.5z"/>
	<path class="st3" d="M93.1,334.4h86.6c0,0-8.5-16.3-43.3-16.3s-43.3,15.4-43.3,15.4L93.1,334.4z"/>
	<rect x="30.6" y="48.7" class="st3" width="12.5" height="600.2"/>
	<rect x="383.3" y="48.7" class="st3" width="12.5" height="600.2"/>
	<rect x="61.4" y="642.9" class="st3" width="309.7" height="6"/>
	<rect x="62.9" y="581.5" class="st3" width="300.7" height="6"/>
	<rect x="59.9" y="114.1" class="st3" width="300.7" height="6"/>
	<rect x="54.7" y="48.7" class="st3" width="309.7" height="6"/>
	<rect x="351" y="128" class="st3" width="9.7" height="445.8"/>
	<rect x="62.8" y="127.4" class="st3" width="9.7" height="445.8"/>
	<path class="st3" d="M213.8,102.8V96c0,0-18.8-0.5-18.8-13.1s18.8-9.2,18.8-9.2v-9.8c0,0-31.3,3-30.4,19.4
		C184.2,99.8,205.9,102,213.8,102.8z"/>
	<path class="st3" d="M220.6,102.8V96c0,0,17.7-6,17.4-12.6s-17.4-9.9-17.4-9.9v-7.9c0,0,27.7,5.4,28,16
		C248.9,92.2,227.7,101.4,220.6,102.8z"/>
	<path class="st4" d="M302.2,84.2c0,0-3.5,15.4,36.2,16.7c39.7,1.4,32.1-17.5,32.1-17.5l-9.8-1c0,0,0.2,12-24.1,11.7
		c-24.3-0.3-24.6-9.9-24.6-9.9L302.2,84.2z"/>
	<path class="st4" d="M302.1,79.4h10.7c0,0-3-13.1,23.8-11.7s24.1,10.6,24.1,10.6l8.2-0.5c0,0-4.7-16.3-32.2-15
		C309,64.2,303.4,72.1,302.1,79.4z"/>
	<path class="st4" d="M56.4,85.7c0,0-3.5,15.4,36.2,16.7s32.1-17.5,32.1-17.5l-9.8-1c0,0,0.2,12-24.1,11.7s-24.6-9.9-24.6-9.9
		L56.4,85.7z"/>
	<path class="st4" d="M56.3,80.9H67c0,0-3-13.1,23.8-11.7s24.1,10.6,24.1,10.6l8.2-0.5c0,0-4.7-16.3-32.2-15
		C63.2,65.7,57.6,73.6,56.3,80.9z"/>
	<rect x="146.7" y="66.9" class="st4" width="9.2" height="35.9"/>
	<rect x="277.9" y="66.9" class="st4" width="9.2" height="35.9"/>
	<ellipse class="st4" cx="86.3" cy="82.8" rx="9.8" ry="6.1"/>
	<ellipse class="st4" cx="213.8" cy="84.9" rx="9.8" ry="6.1"/>
	<ellipse class="st4" cx="332.8" cy="80.9" rx="9.8" ry="6.1"/>
	<path class="st3" d="M212.3,634.1v-6.8c0,0-18.8-0.5-18.8-13.1c0-12.5,18.8-9.2,18.8-9.2v-9.8c0,0-31.3,3-30.4,19.4
		C182.6,631.2,204.4,633.3,212.3,634.1z"/>
	<path class="st3" d="M219.1,634.1v-6.8c0,0,17.7-6,17.4-12.6s-17.4-9.9-17.4-9.9v-7.9c0,0,27.7,5.4,28,16S226.1,632.8,219.1,634.1z
		"/>
	<path class="st4" d="M300.6,615.5c0,0-3.5,15.4,36.2,16.7c39.7,1.4,32.1-17.5,32.1-17.5l-9.8-1c0,0,0.2,12-24.1,11.7
		c-24.3-0.3-24.6-9.9-24.6-9.9H300.6z"/>
	<path class="st4" d="M300.6,610.8h10.7c0,0-3-13.1,23.8-11.7c26.8,1.4,24.1,10.6,24.1,10.6l8.2-0.5c0,0-4.7-16.3-32.2-15
		C307.4,595.5,301.8,603.4,300.6,610.8z"/>
	<path class="st4" d="M54.8,617c0,0-3.5,15.4,36.2,16.7s32.1-17.5,32.1-17.5l-9.8-1c0,0,0.2,12-24.1,11.7S64.6,617,64.6,617H54.8z"
		/>
	<path class="st4" d="M54.8,612.3h10.7c0,0-3-13.1,23.8-11.7c26.8,1.4,24.1,10.6,24.1,10.6l8.2-0.5c0,0-4.7-16.3-32.2-15
		S56,604.9,54.8,612.3z"/>
	<rect x="145.1" y="598.3" class="st4" width="9.2" height="35.9"/>
	<rect x="276.4" y="598.3" class="st4" width="9.2" height="35.9"/>
	<ellipse class="st4" cx="84.7" cy="614.2" rx="9.8" ry="6.1"/>
	<ellipse class="st4" cx="212.3" cy="616.2" rx="9.8" ry="6.1"/>
	<ellipse class="st4" cx="331.3" cy="612.3" rx="9.8" ry="6.1"/>
	<g>
		<path class="st3" d="M215.4,428.6c-2.5-0.6-3.8-1.8-3.8-1.8v-7.4l3.8-210c-3.1-6.2-14.6-8.3-14.6-8.3
			c-20.4-6.3-44.5-21.9-57.4-22.1c-12.9-0.2-6.3,5.7-6.3,5.7c14.2,5.3,59.4,25.6,59.4,25.6s0.7,5,0.7,18.9s-0.6,172.7,0.1,185.3
			c0.7,12.7-5.6,12.7-12.9,13.5c-7.4,0.8-3.7,7.5-3.7,7.5c6.3-0.6,11.7-1.9,11.7-1.9h23L215.4,428.6L215.4,428.6z"/>
		<path class="st3" d="M290.7,179c-5.8-1.2-122.6,0-122.6,0v2l95.2,4.9c-15.9,7.6-41.1,15.8-41.1,15.8l-0.7,7.7
			c0,0-0.7,200.8-1.1,208.8c-0.4,8.1,6,9,6,9s2.8,0.4-3.4,1.5c-0.2,0-0.4,0.1-0.6,0.1v4.8h14.2c0,0,7.7,2.1,8.7,1.9
			c1.5-0.2,3.7-7.7-3.7-8.3c-6.3-0.5-11-4.7-12.3-5.9c0.1-1.7-0.1-7.6-1.5-25.4c-2.6-33.3,1.2-186.3,1.2-186.3s56.2-23,58.3-24.2
			C289.5,184.2,296.4,180.2,290.7,179z"/>
	</g>
	<path class="st3" d="M562.9,448.7"/>
	<path class="st3" d="M648.3,472.2c0,0,0.1,18.6-0.2,23.1c-0.4,4.5,0.2,10,4.5,10.2s4.3-8.2,4.3-8.2l0.1-23.4l8.9,3.3
		c0,0-0.1,6.6,0.1,14.2c0.2,7.6,1.9,8.4,1.9,8.4l5,3.3c-10.6,2.1-21.7,14.1-21.7,14.1c-8.9-7.6-23.4-12.3-23.4-12.3s6.2-2.8,9.5-5.5
		c3.3-2.6,2.6-4.9,2.6-4.9l-1.2-24.8L648.3,472.2z"/>
	<path class="st3" d="M737.1,489.2c1.7,0.6,2.6,1.5,4.2,2c25.7,9.4,7.4,18,4.9,18.5c-2.5,0.4-19.8,0-19.8,0s0.6-4.7,3.1-4.4
		c2.6,0.4,20.4,2.5,11.4-4.4s-157.8-56.3-157.8-56.3s-13.8-5.5-27.6-1.5c0,0-1.2,12.8-13,5.6c-11.9-7.2,2.6-17.9,12.2-13.6
		c0,0,3.9-0.8,12.2-0.3L532.8,342h8.3l32.8,93.5c0.3,0,0.6,0.1,0.9,0.1l35.4-90.9h6.2l-37.5,91l0,0c7.3,1,13.2,2.8,24.6,6.1
		l19.3,6.2c0,0,1.4-8.9,11.1-10l16,0.4c-1.9,1.3-11.7,8.8-12.3,11.3c-1.7,7.1,13,10.2,13,10.2h0.9c0,0,16,1.3,16.7-7.2
		c0.4-4.3-7.5-11.9-10.2-13.5h17.2c1.7,1.1,4.4,3.9,4.9,6.8c0,0,0,1.8,8.2,2.8c0,0-18.3,7.1-13.9,14.6c0,0,30.6,14.1,56.3,23.8
		l-2.1-4.5l-38.8-89.2h7.2l33.2,86.8c0,0,2.4,4.9,5.2,0s33.6-86.8,33.6-86.8h6.4L737.1,489.2z"/>
	<path class="st3" d="M689.6,385.5h86.6c0,0-8.5-16.3-43.3-16.3s-43.3,15.4-43.3,15.4V385.5L689.6,385.5z"/>
	<path class="st3" d="M532.6,334.4h86.6c0,0-8.5-16.3-43.3-16.3s-43.3,15.4-43.3,15.4V334.4z"/>
	<rect x="470.1" y="48.7" class="st3" width="12.5" height="600.2"/>
	<rect x="822.8" y="48.7" class="st3" width="12.5" height="600.2"/>
	<rect x="500.9" y="642.9" class="st3" width="309.7" height="6"/>
	<rect x="502.4" y="581.5" class="st3" width="300.7" height="6"/>
	<rect x="499.4" y="114.1" class="st3" width="300.7" height="6"/>
	<rect x="494.2" y="48.7" class="st3" width="309.7" height="6"/>
	<rect x="790.5" y="128" class="st3" width="9.7" height="445.8"/>
	<rect x="502.3" y="127.4" class="st3" width="9.7" height="445.8"/>
	<path class="st3" d="M653.3,102.8V96c0,0-18.8-0.5-18.8-13.1s18.8-9.2,18.8-9.2v-9.8c0,0-31.3,3-30.4,19.4
		C623.7,99.8,645.4,102,653.3,102.8z"/>
	<path class="st3" d="M660.1,102.8V96c0,0,17.7-6,17.4-12.6s-17.4-9.9-17.4-9.9v-7.9c0,0,27.7,5.4,28,16S667.2,101.4,660.1,102.8z"
		/>
	<path class="st4" d="M741.7,84.2c0,0-3.5,15.4,36.2,16.7c39.7,1.4,32.1-17.5,32.1-17.5l-9.8-1c0,0,0.2,12-24.1,11.7
		s-24.6-9.9-24.6-9.9L741.7,84.2z"/>
	<path class="st4" d="M741.6,79.4h10.7c0,0-3-13.1,23.8-11.7s24.1,10.6,24.1,10.6l8.2-0.5c0,0-4.7-16.3-32.2-15
		C748.5,64.2,742.9,72.1,741.6,79.4z"/>
	<path class="st4" d="M495.9,85.7c0,0-3.5,15.4,36.2,16.7s32.1-17.5,32.1-17.5l-9.8-1c0,0,0.2,12-24.1,11.7s-24.6-9.9-24.6-9.9
		L495.9,85.7z"/>
	<path class="st4" d="M495.8,80.9h10.7c0,0-3-13.1,23.8-11.7s24.1,10.6,24.1,10.6l8.2-0.5c0,0-4.7-16.3-32.2-15
		C502.7,65.7,497.1,73.6,495.8,80.9z"/>
	<rect x="586.2" y="66.9" class="st4" width="9.2" height="35.9"/>
	<rect x="717.4" y="66.9" class="st4" width="9.2" height="35.9"/>
	<ellipse class="st4" cx="525.8" cy="82.8" rx="9.8" ry="6.1"/>
	<ellipse class="st4" cx="653.3" cy="84.9" rx="9.8" ry="6.1"/>
	<ellipse class="st4" cx="772.3" cy="80.9" rx="9.8" ry="6.1"/>
	<path class="st3" d="M651.8,634.1v-6.8c0,0-18.8-0.5-18.8-13.1c0-12.5,18.8-9.2,18.8-9.2v-9.8c0,0-31.3,3-30.4,19.4
		C622.1,631.2,643.9,633.3,651.8,634.1z"/>
	<path class="st3" d="M658.6,634.1v-6.8c0,0,17.7-6,17.4-12.6s-17.4-9.9-17.4-9.9v-7.9c0,0,27.7,5.4,28,16S665.6,632.8,658.6,634.1z
		"/>
	<path class="st4" d="M740.1,615.5c0,0-3.5,15.4,36.2,16.7c39.7,1.4,32.1-17.5,32.1-17.5l-9.8-1c0,0,0.2,12-24.1,11.7
		s-24.6-9.9-24.6-9.9H740.1z"/>
	<path class="st4" d="M740.1,610.8h10.7c0,0-3-13.1,23.8-11.7c26.8,1.4,24.1,10.6,24.1,10.6l8.2-0.5c0,0-4.7-16.3-32.2-15
		C746.9,595.5,741.3,603.4,740.1,610.8z"/>
	<path class="st4" d="M494.3,617c0,0-3.5,15.4,36.2,16.7s32.1-17.5,32.1-17.5l-9.8-1c0,0,0.2,12-24.1,11.7s-24.6-9.9-24.6-9.9H494.3
		z"/>
	<path class="st4" d="M494.3,612.3H505c0,0-3-13.1,23.8-11.7c26.8,1.4,24.1,10.6,24.1,10.6l8.2-0.5c0,0-4.7-16.3-32.2-15
		S495.5,604.9,494.3,612.3z"/>
	<rect x="584.6" y="598.3" class="st4" width="9.2" height="35.9"/>
	<rect x="715.9" y="598.3" class="st4" width="9.2" height="35.9"/>
	<ellipse class="st4" cx="524.2" cy="614.2" rx="9.8" ry="6.1"/>
	<ellipse class="st4" cx="651.8" cy="616.2" rx="9.8" ry="6.1"/>
	<ellipse class="st4" cx="770.8" cy="612.3" rx="9.8" ry="6.1"/>
	<g>
		<path class="st3" d="M654.8,428.6c-2.5-0.6-3.8-1.8-3.8-1.8v-7.4l3.8-210c-3.1-6.2-14.6-8.3-14.6-8.3
			c-20.4-6.3-44.5-21.9-57.4-22.1c-12.9-0.2-6.3,5.7-6.3,5.7c14.2,5.3,59.4,25.6,59.4,25.6s0.7,5,0.7,18.9s-0.6,172.7,0.1,185.3
			c0.7,12.7-5.6,12.7-12.9,13.5c-7.4,0.8-3.7,7.5-3.7,7.5c6.3-0.6,11.7-1.9,11.7-1.9h23V428.6z"/>
		<path class="st3" d="M730.2,179c-5.8-1.2-122.6,0-122.6,0v2l95.2,4.9c-15.9,7.6-41.1,15.8-41.1,15.8l-0.7,7.7
			c0,0-0.7,200.8-1.1,208.8c-0.4,8.1,6,9,6,9s2.8,0.4-3.4,1.5c-0.2,0-0.4,0.1-0.6,0.1v4.8h14.2c0,0,7.7,2.1,8.7,1.9
			c1.5-0.2,3.7-7.7-3.7-8.3c-6.3-0.5-11-4.7-12.3-5.9c0.1-1.7-0.1-7.6-1.5-25.4c-2.6-33.3,1.2-186.3,1.2-186.3s56.2-23,58.3-24.2
			C729,184.2,735.9,180.2,730.2,179z"/>
	</g>
</g>
<path id="right_outsideCutPath_00000028298239496366767860000006567056606915479195_" vector-effect="non-scaling-stroke" class="st2" d="
	M908,0c0,234.3,0,468.7,0,703c0,5.7,0,11.3,0,17h18V-2"/>
<path id="right_outsideCutPath_00000176750423318095771840000008058255959633536655_" vector-effect="non-scaling-stroke" class="st2" d="
	M944,0c0,234.3,0,468.7,0,703c0,5.7,0,11.3,0,17h18V-2"/>
<path id="right_outsideCutPath_00000075857354063073920470000016922581859661265825_" vector-effect="non-scaling-stroke" class="st2" d="
	M981,0c0,234.3,0,468.7,0,703c0,5.7,0,11.3,0,17h18V-2"/>
<path id="right_outsideCutPath_00000066474980239087635700000017060727645980553384_" vector-effect="non-scaling-stroke" class="st2" d="
	M1017,0c0,234.3,0,468.7,0,703c0,5.7,0,11.3,0,17h18V-2"/>
<path id="right_outsideCutPath_00000085973043643564553700000005590330135971277235_" vector-effect="non-scaling-stroke" class="st2" d="
	M1050.3,1c0,234.3,0,468.7,0,703c0,5.7,0,11.3,0,17h18V-1"/>
<path id="right_outsideCutPath_00000067956060266549046280000017753928861983146393_" vector-effect="non-scaling-stroke" class="st2" d="
	M1086.3,1c0,234.3,0,468.7,0,703c0,5.7,0,11.3,0,17h18V-1"/>
<path id="right_outsideCutPath_00000114765181175608936550000004734799146570619574_" vector-effect="non-scaling-stroke" class="st2" d="
	M1123.3,1c0,234.3,0,468.7,0,703c0,5.7,0,11.3,0,17h18V-1"/>
<path id="right_outsideCutPath_00000098906214528934438580000010077879734361072778_" vector-effect="non-scaling-stroke" class="st2" d="
	M1159.3,1c0,234.3,0,468.7,0,703c0,5.7,0,11.3,0,17h18V-1"/>
</svg>
